<svg width="614" height="564" viewBox="0 0 614 564" fill="none" xmlns="http://www.w3.org/2000/svg">
<circle cx="282.247" cy="281.785" r="281.462" fill="#C4C4C4"/>
<circle cx="282.247" cy="281.785" r="187.641" fill="#E3E0E0"/>
<circle cx="282.246" cy="281.785" r="78.1839" fill="#FBF6F6"/>
<path d="M266.864 284.254L267.274 287.066L267.875 284.532L272.094 269.649H274.467L278.583 284.532L279.169 287.11L279.623 284.239L282.934 269.649H285.761L280.59 290.978H278.026L273.632 275.436L273.295 273.81L272.958 275.436L268.402 290.978H265.839L260.683 269.649H263.495L266.864 284.254ZM294.579 291.271C292.431 291.271 290.683 290.567 289.335 289.161C287.987 287.745 287.313 285.855 287.313 283.492V282.994C287.313 281.422 287.611 280.021 288.207 278.79C288.812 277.55 289.652 276.583 290.727 275.89C291.811 275.187 292.982 274.835 294.242 274.835C296.303 274.835 297.904 275.514 299.047 276.871C300.189 278.229 300.761 280.172 300.761 282.701V283.829H290.023C290.062 285.392 290.517 286.656 291.386 287.623C292.265 288.58 293.378 289.059 294.726 289.059C295.683 289.059 296.493 288.863 297.157 288.473C297.821 288.082 298.402 287.564 298.9 286.92L300.556 288.209C299.228 290.25 297.235 291.271 294.579 291.271ZM294.242 277.062C293.148 277.062 292.23 277.462 291.488 278.263C290.746 279.054 290.287 280.167 290.111 281.603H298.051V281.397C297.973 280.021 297.602 278.956 296.938 278.204C296.273 277.442 295.375 277.062 294.242 277.062ZM311.571 277.56C311.161 277.491 310.717 277.457 310.238 277.457C308.461 277.457 307.255 278.214 306.62 279.728V290.978H303.91V275.128H306.547L306.591 276.959C307.479 275.543 308.739 274.835 310.37 274.835C310.897 274.835 311.298 274.903 311.571 275.04V277.56ZM318.485 271.29V275.128H321.444V277.223H318.485V287.052C318.485 287.687 318.617 288.165 318.881 288.487C319.145 288.8 319.594 288.956 320.229 288.956C320.541 288.956 320.971 288.897 321.518 288.78V290.978C320.805 291.173 320.111 291.271 319.438 291.271C318.227 291.271 317.313 290.904 316.698 290.172C316.083 289.439 315.775 288.399 315.775 287.052V277.223H312.89V275.128H315.775V271.29H318.485ZM333.852 286.773C333.852 286.041 333.573 285.475 333.017 285.074C332.47 284.664 331.508 284.312 330.131 284.02C328.764 283.727 327.675 283.375 326.864 282.965C326.063 282.555 325.468 282.066 325.077 281.5C324.696 280.934 324.506 280.26 324.506 279.479C324.506 278.18 325.053 277.081 326.146 276.183C327.25 275.284 328.656 274.835 330.365 274.835C332.162 274.835 333.617 275.299 334.73 276.227C335.854 277.154 336.415 278.341 336.415 279.786H333.69C333.69 279.044 333.373 278.404 332.738 277.867C332.113 277.33 331.322 277.062 330.365 277.062C329.379 277.062 328.607 277.276 328.051 277.706C327.494 278.136 327.216 278.697 327.216 279.391C327.216 280.045 327.475 280.538 327.992 280.87C328.51 281.202 329.442 281.52 330.79 281.822C332.147 282.125 333.246 282.486 334.086 282.906C334.926 283.326 335.546 283.834 335.946 284.43C336.356 285.016 336.562 285.733 336.562 286.583C336.562 287.999 335.995 289.137 334.862 289.996C333.729 290.846 332.26 291.271 330.453 291.271C329.184 291.271 328.061 291.046 327.084 290.597C326.107 290.147 325.341 289.522 324.784 288.722C324.237 287.911 323.964 287.037 323.964 286.1H326.674C326.723 287.008 327.084 287.73 327.758 288.268C328.441 288.795 329.34 289.059 330.453 289.059C331.479 289.059 332.299 288.854 332.914 288.443C333.539 288.023 333.852 287.467 333.852 286.773ZM346.449 289.059C347.416 289.059 348.261 288.766 348.983 288.18C349.706 287.594 350.106 286.861 350.185 285.982H352.748C352.699 286.891 352.387 287.755 351.811 288.575C351.234 289.396 350.463 290.05 349.496 290.538C348.539 291.026 347.523 291.271 346.449 291.271C344.291 291.271 342.572 290.553 341.293 289.117C340.023 287.672 339.389 285.699 339.389 283.199V282.745C339.389 281.202 339.672 279.83 340.238 278.629C340.805 277.428 341.615 276.495 342.67 275.831C343.734 275.167 344.989 274.835 346.435 274.835C348.212 274.835 349.687 275.367 350.858 276.432C352.04 277.496 352.67 278.878 352.748 280.577H350.185C350.106 279.552 349.716 278.712 349.013 278.058C348.319 277.394 347.46 277.062 346.435 277.062C345.058 277.062 343.988 277.56 343.227 278.556C342.475 279.542 342.099 280.973 342.099 282.848V283.36C342.099 285.187 342.475 286.593 343.227 287.579C343.979 288.565 345.053 289.059 346.449 289.059ZM358.505 277.047C359.706 275.572 361.269 274.835 363.192 274.835C366.542 274.835 368.231 276.725 368.261 280.504V290.978H365.551V280.489C365.541 279.347 365.277 278.502 364.76 277.955C364.252 277.408 363.456 277.135 362.372 277.135C361.493 277.135 360.722 277.369 360.058 277.838C359.394 278.307 358.876 278.922 358.505 279.684V290.978H355.795V268.478H358.505V277.047ZM371.601 282.906C371.601 281.354 371.903 279.957 372.509 278.717C373.124 277.477 373.974 276.52 375.058 275.846C376.151 275.172 377.396 274.835 378.793 274.835C380.951 274.835 382.694 275.582 384.022 277.076C385.36 278.57 386.029 280.558 386.029 283.038V283.229C386.029 284.771 385.731 286.158 385.136 287.389C384.55 288.609 383.705 289.562 382.602 290.245C381.508 290.929 380.248 291.271 378.822 291.271C376.674 291.271 374.931 290.523 373.593 289.029C372.265 287.535 371.601 285.558 371.601 283.097V282.906ZM374.325 283.229C374.325 284.986 374.73 286.397 375.541 287.462C376.361 288.526 377.455 289.059 378.822 289.059C380.199 289.059 381.293 288.521 382.104 287.447C382.914 286.363 383.319 284.85 383.319 282.906C383.319 281.168 382.904 279.762 382.074 278.688C381.254 277.604 380.16 277.062 378.793 277.062C377.455 277.062 376.376 277.594 375.556 278.658C374.735 279.723 374.325 281.246 374.325 283.229ZM373.974 270.895C373.974 270.455 374.105 270.089 374.369 269.796C374.643 269.493 375.043 269.342 375.57 269.342C376.098 269.342 376.498 269.493 376.771 269.796C377.045 270.089 377.182 270.455 377.182 270.895C377.182 271.334 377.045 271.7 376.771 271.993C376.498 272.286 376.098 272.433 375.57 272.433C375.043 272.433 374.643 272.286 374.369 271.993C374.105 271.7 373.974 271.334 373.974 270.895ZM380.272 270.924C380.272 270.484 380.404 270.113 380.668 269.811C380.941 269.508 381.342 269.356 381.869 269.356C382.396 269.356 382.797 269.508 383.07 269.811C383.344 270.113 383.48 270.484 383.48 270.924C383.48 271.363 383.344 271.729 383.07 272.022C382.797 272.315 382.396 272.462 381.869 272.462C381.342 272.462 380.941 272.315 380.668 272.022C380.404 271.729 380.272 271.363 380.272 270.924ZM402.816 283.229C402.816 285.641 402.265 287.584 401.161 289.059C400.058 290.533 398.563 291.271 396.679 291.271C394.755 291.271 393.241 290.66 392.138 289.439V297.071H389.428V275.128H391.903L392.035 276.886C393.139 275.519 394.672 274.835 396.635 274.835C398.539 274.835 400.043 275.553 401.146 276.988C402.26 278.424 402.816 280.421 402.816 282.979V283.229ZM400.106 282.921C400.106 281.134 399.726 279.723 398.964 278.688C398.202 277.652 397.157 277.135 395.829 277.135C394.188 277.135 392.958 277.862 392.138 279.317V286.891C392.948 288.336 394.188 289.059 395.858 289.059C397.157 289.059 398.188 288.546 398.949 287.521C399.721 286.485 400.106 284.952 400.106 282.921ZM407.606 290.978V277.223H405.102V275.128H407.606V273.502C407.606 271.803 408.061 270.489 408.969 269.562C409.877 268.634 411.161 268.17 412.821 268.17C413.446 268.17 414.066 268.253 414.682 268.419L414.535 270.616C414.076 270.528 413.588 270.484 413.07 270.484C412.191 270.484 411.513 270.743 411.034 271.261C410.556 271.769 410.316 272.501 410.316 273.458V275.128H413.7V277.223H410.316V290.978H407.606ZM426.488 289.41C425.434 290.65 423.886 291.271 421.845 291.271C420.155 291.271 418.866 290.782 417.978 289.806C417.099 288.819 416.654 287.364 416.645 285.44V275.128H419.354V285.367C419.354 287.77 420.331 288.971 422.284 288.971C424.354 288.971 425.731 288.199 426.415 286.656V275.128H429.125V290.978H426.547L426.488 289.41ZM435.819 275.128L435.907 277.12C437.118 275.597 438.7 274.835 440.653 274.835C444.003 274.835 445.692 276.725 445.722 280.504V290.978H443.012V280.489C443.002 279.347 442.738 278.502 442.221 277.955C441.713 277.408 440.917 277.135 439.833 277.135C438.954 277.135 438.183 277.369 437.519 277.838C436.854 278.307 436.337 278.922 435.966 279.684V290.978H433.256V275.128H435.819ZM449.164 282.921C449.164 280.45 449.735 278.487 450.878 277.032C452.021 275.567 453.534 274.835 455.419 274.835C457.353 274.835 458.861 275.519 459.945 276.886L460.077 275.128H462.553V290.597C462.553 292.647 461.942 294.264 460.722 295.445C459.511 296.627 457.88 297.218 455.829 297.218C454.687 297.218 453.568 296.974 452.475 296.485C451.381 295.997 450.546 295.328 449.97 294.479L451.376 292.853C452.538 294.288 453.959 295.006 455.639 295.006C456.957 295.006 457.982 294.635 458.715 293.893C459.457 293.15 459.828 292.105 459.828 290.758V289.396C458.744 290.646 457.265 291.271 455.39 291.271C453.534 291.271 452.03 290.523 450.878 289.029C449.735 287.535 449.164 285.499 449.164 282.921ZM451.889 283.229C451.889 285.016 452.255 286.422 452.987 287.447C453.72 288.463 454.745 288.971 456.063 288.971C457.772 288.971 459.027 288.194 459.828 286.642V279.405C458.998 277.892 457.753 277.135 456.093 277.135C454.774 277.135 453.744 277.647 453.002 278.673C452.26 279.698 451.889 281.217 451.889 283.229ZM475.883 286.773C475.883 286.041 475.604 285.475 475.048 285.074C474.501 284.664 473.539 284.312 472.162 284.02C470.795 283.727 469.706 283.375 468.896 282.965C468.095 282.555 467.499 282.066 467.108 281.5C466.728 280.934 466.537 280.26 466.537 279.479C466.537 278.18 467.084 277.081 468.178 276.183C469.281 275.284 470.688 274.835 472.396 274.835C474.193 274.835 475.648 275.299 476.762 276.227C477.885 277.154 478.446 278.341 478.446 279.786H475.722C475.722 279.044 475.404 278.404 474.77 277.867C474.145 277.33 473.354 277.062 472.396 277.062C471.41 277.062 470.639 277.276 470.082 277.706C469.525 278.136 469.247 278.697 469.247 279.391C469.247 280.045 469.506 280.538 470.023 280.87C470.541 281.202 471.474 281.52 472.821 281.822C474.179 282.125 475.277 282.486 476.117 282.906C476.957 283.326 477.577 283.834 477.978 284.43C478.388 285.016 478.593 285.733 478.593 286.583C478.593 287.999 478.026 289.137 476.894 289.996C475.761 290.846 474.291 291.271 472.484 291.271C471.215 291.271 470.092 291.046 469.115 290.597C468.139 290.147 467.372 289.522 466.815 288.722C466.269 287.911 465.995 287.037 465.995 286.1H468.705C468.754 287.008 469.115 287.73 469.789 288.268C470.473 288.795 471.371 289.059 472.484 289.059C473.51 289.059 474.33 288.854 474.945 288.443C475.57 288.023 475.883 287.467 475.883 286.773ZM486.547 283.639L484.848 285.411V290.978H482.138V268.478H484.848V282.086L486.298 280.343L491.234 275.128H494.53L488.363 281.749L495.248 290.978H492.069L486.547 283.639ZM503.612 291.271C501.464 291.271 499.716 290.567 498.368 289.161C497.021 287.745 496.347 285.855 496.347 283.492V282.994C496.347 281.422 496.645 280.021 497.24 278.79C497.846 277.55 498.686 276.583 499.76 275.89C500.844 275.187 502.016 274.835 503.275 274.835C505.336 274.835 506.938 275.514 508.08 276.871C509.223 278.229 509.794 280.172 509.794 282.701V283.829H499.057C499.096 285.392 499.55 286.656 500.419 287.623C501.298 288.58 502.411 289.059 503.759 289.059C504.716 289.059 505.526 288.863 506.19 288.473C506.854 288.082 507.436 287.564 507.934 286.92L509.589 288.209C508.261 290.25 506.269 291.271 503.612 291.271ZM503.275 277.062C502.182 277.062 501.264 277.462 500.521 278.263C499.779 279.054 499.32 280.167 499.145 281.603H507.084V281.397C507.006 280.021 506.635 278.956 505.971 278.204C505.307 277.442 504.408 277.062 503.275 277.062ZM516.62 271.29V275.128H519.579V277.223H516.62V287.052C516.62 287.687 516.752 288.165 517.016 288.487C517.279 288.8 517.729 288.956 518.363 288.956C518.676 288.956 519.105 288.897 519.652 288.78V290.978C518.939 291.173 518.246 291.271 517.572 291.271C516.361 291.271 515.448 290.904 514.833 290.172C514.218 289.439 513.91 288.399 513.91 287.052V277.223H511.024V275.128H513.91V271.29H516.62ZM526.435 271.29V275.128H529.394V277.223H526.435V287.052C526.435 287.687 526.566 288.165 526.83 288.487C527.094 288.8 527.543 288.956 528.178 288.956C528.49 288.956 528.92 288.897 529.467 288.78V290.978C528.754 291.173 528.061 291.271 527.387 291.271C526.176 291.271 525.263 290.904 524.647 290.172C524.032 289.439 523.725 288.399 523.725 287.052V277.223H520.839V275.128H523.725V271.29H526.435ZM539.149 291.271C537.001 291.271 535.253 290.567 533.905 289.161C532.558 287.745 531.884 285.855 531.884 283.492V282.994C531.884 281.422 532.182 280.021 532.777 278.79C533.383 277.55 534.223 276.583 535.297 275.89C536.381 275.187 537.553 274.835 538.812 274.835C540.873 274.835 542.475 275.514 543.617 276.871C544.76 278.229 545.331 280.172 545.331 282.701V283.829H534.594C534.633 285.392 535.087 286.656 535.956 287.623C536.835 288.58 537.948 289.059 539.296 289.059C540.253 289.059 541.063 288.863 541.728 288.473C542.392 288.082 542.973 287.564 543.471 286.92L545.126 288.209C543.798 290.25 541.806 291.271 539.149 291.271ZM538.812 277.062C537.719 277.062 536.801 277.462 536.059 278.263C535.316 279.054 534.857 280.167 534.682 281.603H542.621V281.397C542.543 280.021 542.172 278.956 541.508 278.204C540.844 277.442 539.945 277.062 538.812 277.062Z" fill="black"/>
<path d="M351.749 175.273L358.722 192.676L365.694 175.273H369.342V196.602H366.529V188.296L366.793 179.331L359.791 196.602H357.638L350.65 179.375L350.929 188.296V196.602H348.116V175.273H351.749ZM380.46 196.895C378.312 196.895 376.563 196.191 375.216 194.785C373.868 193.369 373.194 191.479 373.194 189.116V188.618C373.194 187.046 373.492 185.645 374.088 184.414C374.693 183.174 375.533 182.207 376.607 181.514C377.691 180.811 378.863 180.459 380.123 180.459C382.184 180.459 383.785 181.138 384.928 182.495C386.07 183.853 386.642 185.796 386.642 188.325V189.453H375.904C375.943 191.016 376.397 192.28 377.267 193.247C378.146 194.204 379.259 194.683 380.606 194.683C381.563 194.683 382.374 194.487 383.038 194.097C383.702 193.706 384.283 193.188 384.781 192.544L386.437 193.833C385.108 195.874 383.116 196.895 380.46 196.895ZM380.123 182.686C379.029 182.686 378.111 183.086 377.369 183.887C376.627 184.678 376.168 185.791 375.992 187.227H383.932V187.021C383.854 185.645 383.482 184.58 382.818 183.828C382.154 183.066 381.256 182.686 380.123 182.686ZM399.02 192.397C399.02 191.665 398.741 191.099 398.185 190.698C397.638 190.288 396.676 189.937 395.299 189.644C393.932 189.351 392.843 188.999 392.032 188.589C391.231 188.179 390.636 187.69 390.245 187.124C389.864 186.558 389.674 185.884 389.674 185.103C389.674 183.804 390.221 182.705 391.314 181.807C392.418 180.908 393.824 180.459 395.533 180.459C397.33 180.459 398.785 180.923 399.898 181.851C401.021 182.778 401.583 183.965 401.583 185.41H398.858C398.858 184.668 398.541 184.028 397.906 183.491C397.281 182.954 396.49 182.686 395.533 182.686C394.547 182.686 393.775 182.9 393.219 183.33C392.662 183.76 392.384 184.321 392.384 185.015C392.384 185.669 392.643 186.162 393.16 186.494C393.678 186.826 394.61 187.144 395.958 187.446C397.315 187.749 398.414 188.11 399.254 188.53C400.094 188.95 400.714 189.458 401.114 190.054C401.524 190.64 401.729 191.357 401.729 192.207C401.729 193.623 401.163 194.761 400.03 195.62C398.897 196.47 397.428 196.895 395.621 196.895C394.352 196.895 393.229 196.67 392.252 196.221C391.275 195.771 390.509 195.146 389.952 194.346C389.405 193.535 389.132 192.661 389.132 191.724H391.842C391.891 192.632 392.252 193.354 392.926 193.892C393.609 194.419 394.508 194.683 395.621 194.683C396.646 194.683 397.467 194.478 398.082 194.067C398.707 193.647 399.02 193.091 399.02 192.397ZM404.542 188.53C404.542 186.978 404.845 185.581 405.45 184.341C406.065 183.101 406.915 182.144 407.999 181.47C409.093 180.796 410.338 180.459 411.734 180.459C413.893 180.459 415.636 181.206 416.964 182.7C418.302 184.194 418.971 186.182 418.971 188.662V188.853C418.971 190.396 418.673 191.782 418.077 193.013C417.491 194.233 416.646 195.186 415.543 195.869C414.449 196.553 413.189 196.895 411.764 196.895C409.615 196.895 407.872 196.147 406.534 194.653C405.206 193.159 404.542 191.182 404.542 188.721V188.53ZM407.267 188.853C407.267 190.61 407.672 192.021 408.482 193.086C409.303 194.15 410.396 194.683 411.764 194.683C413.141 194.683 414.234 194.146 415.045 193.071C415.855 191.987 416.261 190.474 416.261 188.53C416.261 186.792 415.846 185.386 415.016 184.312C414.195 183.228 413.102 182.686 411.734 182.686C410.396 182.686 409.317 183.218 408.497 184.282C407.677 185.347 407.267 186.87 407.267 188.853ZM426.046 176.914V180.752H429.005V182.847H426.046V192.676C426.046 193.311 426.178 193.789 426.441 194.111C426.705 194.424 427.154 194.58 427.789 194.58C428.102 194.58 428.531 194.521 429.078 194.404V196.602C428.365 196.797 427.672 196.895 426.998 196.895C425.787 196.895 424.874 196.528 424.259 195.796C423.644 195.063 423.336 194.023 423.336 192.676V182.847H420.45V180.752H423.336V176.914H426.046ZM439.845 183.184C439.435 183.115 438.99 183.081 438.512 183.081C436.734 183.081 435.528 183.838 434.894 185.352V196.602H432.184V180.752H434.82L434.864 182.583C435.753 181.167 437.013 180.459 438.644 180.459C439.171 180.459 439.571 180.527 439.845 180.664V183.184ZM448.634 196.895C446.485 196.895 444.737 196.191 443.39 194.785C442.042 193.369 441.368 191.479 441.368 189.116V188.618C441.368 187.046 441.666 185.645 442.262 184.414C442.867 183.174 443.707 182.207 444.781 181.514C445.865 180.811 447.037 180.459 448.297 180.459C450.357 180.459 451.959 181.138 453.102 182.495C454.244 183.853 454.815 185.796 454.815 188.325V189.453H444.078C444.117 191.016 444.571 192.28 445.44 193.247C446.319 194.204 447.433 194.683 448.78 194.683C449.737 194.683 450.548 194.487 451.212 194.097C451.876 193.706 452.457 193.188 452.955 192.544L454.61 193.833C453.282 195.874 451.29 196.895 448.634 196.895ZM448.297 182.686C447.203 182.686 446.285 183.086 445.543 183.887C444.801 184.678 444.342 185.791 444.166 187.227H452.105V187.021C452.027 185.645 451.656 184.58 450.992 183.828C450.328 183.066 449.43 182.686 448.297 182.686ZM460.528 180.752L460.616 182.744C461.827 181.221 463.409 180.459 465.362 180.459C468.712 180.459 470.401 182.349 470.431 186.128V196.602H467.721V186.113C467.711 184.971 467.447 184.126 466.93 183.579C466.422 183.032 465.626 182.759 464.542 182.759C463.663 182.759 462.892 182.993 462.228 183.462C461.563 183.931 461.046 184.546 460.675 185.308V196.602H457.965V180.752H460.528ZM473.858 188.545C473.858 186.113 474.435 184.16 475.587 182.686C476.739 181.201 478.248 180.459 480.113 180.459C481.969 180.459 483.438 181.094 484.522 182.363V174.102H487.232V196.602H484.742L484.61 194.902C483.526 196.23 482.018 196.895 480.084 196.895C478.248 196.895 476.749 196.143 475.587 194.639C474.435 193.135 473.858 191.172 473.858 188.75V188.545ZM476.568 188.853C476.568 190.649 476.939 192.056 477.682 193.071C478.424 194.087 479.449 194.595 480.758 194.595C482.477 194.595 483.731 193.823 484.522 192.28V185C483.712 183.506 482.467 182.759 480.787 182.759C479.459 182.759 478.424 183.271 477.682 184.297C476.939 185.322 476.568 186.841 476.568 188.853ZM500.68 192.397C500.68 191.665 500.401 191.099 499.845 190.698C499.298 190.288 498.336 189.937 496.959 189.644C495.592 189.351 494.503 188.999 493.692 188.589C492.892 188.179 492.296 187.69 491.905 187.124C491.524 186.558 491.334 185.884 491.334 185.103C491.334 183.804 491.881 182.705 492.975 181.807C494.078 180.908 495.484 180.459 497.193 180.459C498.99 180.459 500.445 180.923 501.559 181.851C502.682 182.778 503.243 183.965 503.243 185.41H500.519C500.519 184.668 500.201 184.028 499.566 183.491C498.941 182.954 498.15 182.686 497.193 182.686C496.207 182.686 495.436 182.9 494.879 183.33C494.322 183.76 494.044 184.321 494.044 185.015C494.044 185.669 494.303 186.162 494.82 186.494C495.338 186.826 496.271 187.144 497.618 187.446C498.976 187.749 500.074 188.11 500.914 188.53C501.754 188.95 502.374 189.458 502.774 190.054C503.185 190.64 503.39 191.357 503.39 192.207C503.39 193.623 502.823 194.761 501.69 195.62C500.558 196.47 499.088 196.895 497.281 196.895C496.012 196.895 494.889 196.67 493.912 196.221C492.936 195.771 492.169 195.146 491.612 194.346C491.065 193.535 490.792 192.661 490.792 191.724H493.502C493.551 192.632 493.912 193.354 494.586 193.892C495.27 194.419 496.168 194.683 497.281 194.683C498.307 194.683 499.127 194.478 499.742 194.067C500.367 193.647 500.68 193.091 500.68 192.397Z" fill="black"/>
<path d="M449.866 100.815L456.839 118.218L463.812 100.815H467.459V122.144H464.646V113.838L464.91 104.873L457.908 122.144H455.755L448.768 104.917L449.046 113.838V122.144H446.233V100.815H449.866ZM481.785 122.144C481.629 121.831 481.502 121.274 481.404 120.474C480.145 121.782 478.641 122.437 476.893 122.437C475.33 122.437 474.046 121.997 473.04 121.118C472.044 120.229 471.546 119.106 471.546 117.749C471.546 116.099 472.171 114.819 473.421 113.911C474.681 112.993 476.448 112.534 478.724 112.534H481.36V111.289C481.36 110.342 481.077 109.59 480.511 109.033C479.944 108.467 479.109 108.184 478.006 108.184C477.039 108.184 476.229 108.428 475.574 108.916C474.92 109.404 474.593 109.995 474.593 110.688H471.868C471.868 109.897 472.146 109.136 472.703 108.403C473.27 107.661 474.031 107.075 474.988 106.646C475.955 106.216 477.015 106.001 478.167 106.001C479.993 106.001 481.424 106.46 482.459 107.378C483.494 108.286 484.031 109.541 484.07 111.143V118.438C484.07 119.893 484.256 121.05 484.627 121.909V122.144H481.785ZM477.288 120.078C478.138 120.078 478.943 119.858 479.705 119.419C480.467 118.979 481.019 118.408 481.36 117.705V114.453H479.236C475.916 114.453 474.256 115.425 474.256 117.368C474.256 118.218 474.539 118.882 475.105 119.36C475.672 119.839 476.399 120.078 477.288 120.078ZM492.742 114.805L491.043 116.577V122.144H488.333V99.6436H491.043V113.252L492.493 111.509L497.43 106.294H500.726L494.559 112.915L501.443 122.144H498.265L492.742 114.805ZM511.185 108.726C510.774 108.657 510.33 108.623 509.852 108.623C508.074 108.623 506.868 109.38 506.233 110.894V122.144H503.523V106.294H506.16L506.204 108.125C507.093 106.709 508.353 106.001 509.983 106.001C510.511 106.001 510.911 106.069 511.185 106.206V108.726ZM512.679 114.072C512.679 112.52 512.981 111.123 513.587 109.883C514.202 108.643 515.052 107.686 516.136 107.012C517.229 106.338 518.475 106.001 519.871 106.001C522.029 106.001 523.772 106.748 525.101 108.242C526.438 109.736 527.107 111.724 527.107 114.204V114.395C527.107 115.938 526.81 117.324 526.214 118.555C525.628 119.775 524.783 120.728 523.68 121.411C522.586 122.095 521.326 122.437 519.9 122.437C517.752 122.437 516.009 121.689 514.671 120.195C513.343 118.701 512.679 116.724 512.679 114.263V114.072ZM515.403 114.395C515.403 116.152 515.809 117.563 516.619 118.628C517.439 119.692 518.533 120.225 519.9 120.225C521.277 120.225 522.371 119.688 523.182 118.613C523.992 117.529 524.397 116.016 524.397 114.072C524.397 112.334 523.982 110.928 523.152 109.854C522.332 108.77 521.238 108.228 519.871 108.228C518.533 108.228 517.454 108.76 516.634 109.824C515.813 110.889 515.403 112.412 515.403 114.395ZM534.183 102.456V106.294H537.142V108.389H534.183V118.218C534.183 118.853 534.314 119.331 534.578 119.653C534.842 119.966 535.291 120.122 535.926 120.122C536.238 120.122 536.668 120.063 537.215 119.946V122.144C536.502 122.339 535.809 122.437 535.135 122.437C533.924 122.437 533.011 122.07 532.396 121.338C531.78 120.605 531.473 119.565 531.473 118.218V108.389H528.587V106.294H531.473V102.456H534.183ZM547.981 108.726C547.571 108.657 547.127 108.623 546.648 108.623C544.871 108.623 543.665 109.38 543.03 110.894V122.144H540.32V106.294H542.957L543.001 108.125C543.89 106.709 545.149 106.001 546.78 106.001C547.308 106.001 547.708 106.069 547.981 106.206V108.726ZM556.771 122.437C554.622 122.437 552.874 121.733 551.526 120.327C550.179 118.911 549.505 117.021 549.505 114.658V114.16C549.505 112.588 549.803 111.187 550.398 109.956C551.004 108.716 551.844 107.749 552.918 107.056C554.002 106.353 555.174 106.001 556.434 106.001C558.494 106.001 560.096 106.68 561.238 108.037C562.381 109.395 562.952 111.338 562.952 113.867V114.995H552.215C552.254 116.558 552.708 117.822 553.577 118.789C554.456 119.746 555.569 120.225 556.917 120.225C557.874 120.225 558.685 120.029 559.349 119.639C560.013 119.248 560.594 118.73 561.092 118.086L562.747 119.375C561.419 121.416 559.427 122.437 556.771 122.437ZM556.434 108.228C555.34 108.228 554.422 108.628 553.68 109.429C552.938 110.22 552.479 111.333 552.303 112.769H560.242V112.563C560.164 111.187 559.793 110.122 559.129 109.37C558.465 108.608 557.566 108.228 556.434 108.228ZM568.665 106.294L568.753 108.286C569.964 106.763 571.546 106.001 573.499 106.001C576.849 106.001 578.538 107.891 578.567 111.67V122.144H575.857V111.655C575.848 110.513 575.584 109.668 575.066 109.121C574.559 108.574 573.763 108.301 572.679 108.301C571.8 108.301 571.028 108.535 570.364 109.004C569.7 109.473 569.183 110.088 568.812 110.85V122.144H566.102V106.294H568.665ZM581.995 114.087C581.995 111.655 582.571 109.702 583.724 108.228C584.876 106.743 586.385 106.001 588.25 106.001C590.105 106.001 591.575 106.636 592.659 107.905V99.6436H595.369V122.144H592.879L592.747 120.444C591.663 121.772 590.154 122.437 588.221 122.437C586.385 122.437 584.886 121.685 583.724 120.181C582.571 118.677 581.995 116.714 581.995 114.292V114.087ZM584.705 114.395C584.705 116.191 585.076 117.598 585.818 118.613C586.561 119.629 587.586 120.137 588.895 120.137C590.613 120.137 591.868 119.365 592.659 117.822V110.542C591.849 109.048 590.604 108.301 588.924 108.301C587.596 108.301 586.561 108.813 585.818 109.839C585.076 110.864 584.705 112.383 584.705 114.395ZM608.816 117.939C608.816 117.207 608.538 116.641 607.981 116.24C607.435 115.83 606.473 115.479 605.096 115.186C603.729 114.893 602.64 114.541 601.829 114.131C601.028 113.721 600.433 113.232 600.042 112.666C599.661 112.1 599.471 111.426 599.471 110.645C599.471 109.346 600.018 108.247 601.111 107.349C602.215 106.45 603.621 106.001 605.33 106.001C607.127 106.001 608.582 106.465 609.695 107.393C610.818 108.32 611.38 109.507 611.38 110.952H608.655C608.655 110.21 608.338 109.57 607.703 109.033C607.078 108.496 606.287 108.228 605.33 108.228C604.344 108.228 603.572 108.442 603.016 108.872C602.459 109.302 602.181 109.863 602.181 110.557C602.181 111.211 602.439 111.704 602.957 112.036C603.475 112.368 604.407 112.686 605.755 112.988C607.112 113.291 608.211 113.652 609.051 114.072C609.891 114.492 610.511 115 610.911 115.596C611.321 116.182 611.526 116.899 611.526 117.749C611.526 119.165 610.96 120.303 609.827 121.162C608.694 122.012 607.225 122.437 605.418 122.437C604.148 122.437 603.025 122.212 602.049 121.763C601.072 121.313 600.306 120.688 599.749 119.888C599.202 119.077 598.929 118.203 598.929 117.266H601.639C601.688 118.174 602.049 118.896 602.723 119.434C603.406 119.961 604.305 120.225 605.418 120.225C606.443 120.225 607.264 120.02 607.879 119.609C608.504 119.189 608.816 118.633 608.816 117.939Z" fill="black"/>
</svg>
