<svg xmlns="http://www.w3.org/2000/svg" width="421.393" height="552.189" viewBox="0 0 421.393 552.189">
  <g id="Gruppe_320" data-name="Gruppe 320" transform="translate(-177.288 205.864)" opacity="0.256">
    <path id="Pfad_350" data-name="Pfad 350" d="M27.636,0C42.9,0,55.272,11.962,55.272,26.717S42.9,53.434,27.636,53.434,0,41.473,0,26.717,12.373,0,27.636,0" transform="translate(205.107 104.591)" fill="#ffefa6"/>
    <path id="Pfad_351" data-name="Pfad 351" d="M36.316,0C56.373,0,72.633,15.719,72.633,35.109S56.373,70.218,36.316,70.218,0,54.5,0,35.109,16.259,0,36.316,0" transform="translate(177.288 -205.864)" fill="#ffe369"/>
    <path id="Pfad_354" data-name="Pfad 354" d="M64.235,0c35.476,0,64.235,27.8,64.235,62.1S99.71,124.2,64.235,124.2,0,96.4,0,62.1,28.759,0,64.235,0" transform="translate(470.211 -64.354)" fill="#ffe369"/>
    <path id="Pfad_353" data-name="Pfad 353" d="M12.717,0A12.715,12.715,0,1,1,0,12.715,12.716,12.716,0,0,1,12.717,0" transform="translate(499.448 227.669)" fill="#ffefa6"/>
    <path id="Pfad_356" data-name="Pfad 356" d="M9.223,0a9.074,9.074,0,0,1,9.223,8.917,9.074,9.074,0,0,1-9.223,8.917A9.074,9.074,0,0,1,0,8.917,9.074,9.074,0,0,1,9.223,0" transform="translate(451.765 131.308)" fill="#fff"/>
    <path id="Pfad_352" data-name="Pfad 352" d="M69.809,0c38.554,0,69.809,30.215,69.809,67.488s-31.255,67.488-69.809,67.488S0,104.761,0,67.488,31.255,0,69.809,0" transform="translate(240.942 211.35)" fill="#fff"/>
  </g>
</svg>
