<svg xmlns="http://www.w3.org/2000/svg" width="1977.06" height="1000.326" viewBox="0 0 1977.06 1000.326">
  <g id="Gruppe_320" data-name="Gruppe 320" transform="translate(193.06 53.136)" opacity="0.256">
    <path id="Pfad_350" data-name="Pfad 350" d="M171.625,0A171.625,171.625,0,1,1,0,171.625,171.625,171.625,0,0,1,171.625,0" transform="translate(-193.06 136.94)" fill="#ffefa6"/>
    <path id="Pfad_351" data-name="Pfad 351" d="M80.307,0A80.307,80.307,0,1,1,0,80.307,80.307,80.307,0,0,1,80.307,0" transform="translate(540.373 337.013)" fill="#ffe369"/>
    <path id="Pfad_354" data-name="Pfad 354" d="M142.044,0A142.044,142.044,0,1,1,0,142.044,142.044,142.044,0,0,1,142.044,0" transform="translate(1052.94 -53.136)" fill="#ffe369"/>
    <path id="Pfad_355" data-name="Pfad 355" d="M59.016,0A59.016,59.016,0,1,1,0,59.016,59.016,59.016,0,0,1,59.016,0" transform="translate(1665.968 18.908)" fill="#ffefa6"/>
    <path id="Pfad_353" data-name="Pfad 353" d="M28.122,0A28.122,28.122,0,1,1,0,28.122,28.122,28.122,0,0,1,28.122,0" transform="translate(1044.062 467.627)" fill="#ffefa6"/>
    <path id="Pfad_356" data-name="Pfad 356" d="M20.4,0A20.4,20.4,0,1,1,0,20.4,20.4,20.4,0,0,1,20.4,0" transform="translate(805.94 247.213)" fill="#fff"/>
    <path id="Pfad_352" data-name="Pfad 352" d="M154.37,0A154.37,154.37,0,1,1,0,154.37,154.37,154.37,0,0,1,154.37,0" transform="translate(171.633 638.449)" fill="#fff"/>
  </g>
</svg>
